<svg width="44" height="44" viewBox="0 0 44 44" fill="none" xmlns="http://www.w3.org/2000/svg">
<g clip-path="url(#clip0_33_45)">
<path d="M21.9999 30.1424L42.9336 43.3244C43.5831 42.7875 43.9902 41.982 43.9902 41.0726V16.2848L21.9999 30.1424Z" fill="#F14A16"/>
<path d="M0.00109863 16.2848V41.0726C0.00109863 41.982 0.416826 42.7875 1.0664 43.3244C1.5774 43.7402 2.22697 44 2.93717 44H41.0629C41.7731 44 42.4226 43.7488 42.9336 43.3244L0.00109863 16.2848Z" fill="#FF7145"/>
<path d="M23.0828 0.357266C22.4332 -0.119089 21.5584 -0.119089 20.9089 0.357266L0.0012207 16.2848L4.31439 19.0044L6.43634 20.3468L22.0001 30.1424L37.5639 20.3382L39.6859 19.0044L43.9991 16.2848L23.0828 0.357266Z" fill="#00082B"/>
<path d="M32.1334 2.9296H6.1504C5.13706 2.9296 4.31427 3.74373 4.31427 4.75706V19.0044L6.43621 20.3468L22 30.1424L37.5638 20.3382L39.6858 19.0044V10.4473L32.1334 2.9296Z" fill="#F2F2F2"/>
<path d="M32.1334 2.92957V8.6285C32.1334 9.63317 32.9562 10.456 33.9696 10.456H39.6858L32.1334 2.92957Z" fill="#CDD6E0"/>
<path d="M26.9107 8.68912H11.8666V10.4473H26.9107V8.68912Z" fill="#CDD6E0"/>
<path d="M32.1333 13.955H11.8666V15.7132H32.1333V13.955Z" fill="#CDD6E0"/>
<path d="M32.1333 19.2209H11.8666V20.9791H32.1333V19.2209Z" fill="#CDD6E0"/>
</g>
<defs>
<clipPath id="clip0_33_45">
<rect width="44" height="44" fill="white"/>
</clipPath>
</defs>
</svg>
